# xmcd
#
# Track frame offsets:
#	150
#	15054
#	30916
#	47248
#	62250
#	83595
#	102166
#	116950
#	134644
#	147292
#
# Disc length: 2180 seconds
#
# Revision: 1
# Processed by: cddbd v1.5.2PL0 Copyright (c) Steve Scherf et al.
# Submitted via: audiograbber 1.83.01
#
DISCID=7708820a
DTITLE=ROBERTO CARLOS - TU CUERPO
DYEAR=1900
DGENRE=
TTITLE0=TU CUERPO
TTITLE1=EL HUMAHUAQUENO
TTITLE2=QUE SE VAYA TODO AL INFIERNO
TTITLE3=INOLVIDABLE
TTITLE4=NO TE QUIERO VER TRISTE
TTITLE5=DETRÁS DEL HORIZONTE
TTITLE6=SERA EL DESTINO QUIEN DIRA
TTITLE7=MIRA
TTITLE8=EL JARDIN DEL VECINO
TTITLE9=EXISTE UN PROBLEMA ENTRE LOS DOS
EXTD=
EXTT0=
EXTT1=
EXTT2=
EXTT3=
EXTT4=
EXTT5=
EXTT6=
EXTT7=
EXTT8=
EXTT9=
PLAYORDER=
